<svg xmlns="http://www.w3.org/2000/svg" data-name="레이어_1" viewBox="0 0 1920 1920"><path d="M1107.7 798.2c.3 0 .3 1.6 1 1.7 1.7.2 3.6-1.6 6.5-.9 5.5 1.3 7.7 8.7 12.1 8.8 9 .2 7.5 2 14.5 6 1.2.7 3.3.6 5 1.6 2.9 1.6 6 4.5 8.7 6.4l1-2c1.1.7 1.6 3 2.4 3.5 1.4.8 3.6-2.7 3.2 2.4 1 0 6.7 2.4 7.4 3 1.7 1.2 5.8 7.2 6.4 7.7.5.4 2.4-.8 3.6.3 2.2 1.9 0 5.1 5.3 4.3l1.2 4.8 3-1c-2.7 5.8 3.4 4 4 4.5 1 .7 1 4.5 4 5l-3-.5v3l5-1-1 2c6.2-.9 3.6 6.7 4 7 .1.2 2 0 2.9.6 1.5 1 2.2 3.9 4 5l-3 1.4 2.7 2 2.4-1-2 4 4-1-2 3.6c2.6 3.4 4.9 0 7 5l-3 .5c1.4 4.2 4.5 2.2 2 8l4-1-2 4.5 4 1.5c.5 4.3-4-1.5-3 3 2.8-.7 1 5.3 3 8l2-1c.5 1.9-1.7 2.3-1.6 4 .5 5.6 7.7 9 6.5 16-3.8-.8-2.3 1.3-3.3 2.6-.5.7-2-.2-1.6 1.3h5l-2 3 3-1c.8 3.6-2.2 2.1-2.1 5.5 0 2.4 0 2.1 2 3l-2 3.5 4 1c1.3 3.4-2.6 3.6-3 4.5-1.3 3.8 2.7 1.9 3 3 1 2.8-4.5 0-3 4l3 2-3 5.5 3-.5-3 5 1.9 1 .2 5.5-4 .5 4 1.5-4 2 4 2-3 2 1.9 2.5c0 .8-3.3 2-3 5 .1.7 3.1 0 2 2.5l-4-1c.8 2.4 1.5 3.9-1 5.5l4-1.5v3.4l-5 3.1v2c6.7 3.2-3.3 6.7-3.7 10.2l1.8 5.3-4-1 2 5-4 .1c-1.3 3.2.3 4.1 1 7h-3c3.4 2.6-3 7-3 7.5 0 1.8 2.5 4.3-1 5.4l-2-5c2 4.2-1.8 5-2.7 6.3-1 1.6.4 4.7-3.3 4.8l2 5-4-1c1.8 5-.3 4.4-2 8.5l-2.5-1.6c-2.6 1.8-2.8 4.1-2.5 7l-1.5-2c-1.2-.1-2.5 1.2-3 2-1.8 2.8 2 1.3 1.5 3.5l-2.5 2.5-1.5-3c-3.9 1-3.8 3.6-3 7q-3.5-1.5-6.5 1c-1.3 1.1 3.5 1.8 1.5 4-1 1.2-3.5-2.9-5-1.5l-2 2 2 1.6-4 3-2-3c2.3 7.9-3.6 4.6-5 5.5-.8.4-1.1 2.3-2.1 2.9-19 11.7-53.6 26.4-75.6 15.7-7.2-3.5-11-9-13.4-16.7l2-2.4c-3.2.1-1.9-5.7-3-8h3c-1.6-5.2.2-9.6 6-9l-1-4c5.7 2.6 9.3-6 14-6 .7 1.2-4.1 1-2 3 1.8 1.4 4.5-3 4.8-3 2.3-.5 6 1.2 8.3 2v-3c4.6 1.7 5-.8 8-2.5 2-1 5 0 5-3.6l3 2c0-3.9 4.3.3 4.6-5 5.1.8 6.4-3.3 8.7-4.6 1.2-.8 3.2-.5 4.9-1.7 1-.7 7.1-5.3 7.4-5.7.5-.9-.3-2-.6-3l2.8-.2c2-4.2 8.4-8.4 11.1-13.4.7-1.2 1.8-9 2.1-9.3h4l-2-5c1.6.2 5-2.7 4-4l-3-.6 5-1.5-2-4 3 .5c-.7-1.9 1.5-4 1.5-5 .2-1.5-1.6-3.4-1.6-4.9 0-.2 2.3-1.3 3.1-3 3.6-7.6-1.3-8.3-1-11 .3-3.4 3.4 1 4 0l-2.9-4.9 2.9-4.2c-3-1-2.4-8.6 0-11l-1.5-1.5-2.5.5 2-3-2-2 3-2-1-7.5h-3c-1.3-4 3-2.5 3-6l-5 1q6.6-6.5-2-9.5l3-1c-.9-3.8-2.2-8.3-4.2-11.6-1-2-2.7-4.8-4.8-3.9-.7-1.9 2-2.6 1.8-4.3-.7-4.7-7.1-7.9-7.6-8.9-1-1.6-.2-2.3-2.2-5.5-2.6-4.2-4.2-8.3-10-7.3v-3l2 1-.2-3.8c-4.6.3-5.3-7.5-9.8-5.2l1-4-4 3v-5l-5-.5 3-2.4-6-.2v-2.9l-4 1 1-3c-6.5 0-6-7.2-14-5l-.6-5-.4 2.5-2 .5c-.4-7.2-8-5-13-5l3-3c-2 .5-4-.6-5.8-.7-1.2 0-2.1 1.3-2.7 1.3a77 77 0 0 1-21.3-11.8c-.6-.7-5.7-10.7-5.9-11.7-.4-2.2-.3-3.1 1.6-4.6l-2-1c-.4-3 1.5-4.3 1.7-4.8.7-2 3.2-7.9 4.7-9.4l5.7-3.8c2-.6 8.6-1.4 10-2 .8-.3 1.5-2.1 2.4-2.2.8 0 2.1 1.5 3.3 1.6 5.4.3 18.2-.3 23 1.5m613 117.1c.2 0 .3 1.3 1 1.5 1.1.3 4.7-1.4 6.3-1 .6 1.3-4.2 1.1-2 3 1 .9 3.1-2.2 5.4-2 1 .1 1.9 1.2 2.6 1.4 5.5 1.2 6.1 1 11.7 4.6 3 2 5.7.3 5.3 6l-3-2v3c2.3.8 6.2-1.3 8-.5 1.3.6 9 8.6 10 10 .2.3 3 5.8 3 6.2.2 1.5-1.3 3-.4 5 1 2.3 3 1 3.4 1.3.2.2-.7 2-.5 3.1.3 1 1.5 2.1 1.5 3.4 0 2.2-3.6 3.1-3.1 6 .1.6 9 4-1 10l3 .5q-2.8 3.6-1 8l-4-1 2.1 4.5-2 2 1 3.5-3-1 1 3c-3.7-.7-5.4 4.5-7 7.3-.8 1.3-3.4 1.3-2 5.7l-3-2-3 6.6-5-.6 1 4c-4.2.8-6.5 5-10.5 7l-2-2c-.7 1.2-2.7 1.5-3.3 2.4-1.4 2 2 3.3-4.2 1.6l1 3-6-1-.1 3-10 1v2.5c-2.7-.4-1.7 2.5-6 1-1.2 3.5-8.2 4.7-10.8 6.7-.1.1.4 3-.1 3.8l-4-2 2 6-4-1v4l3-1v3.4l-2 1.1c1.3 1.6 2 2.5 4 1.5l-1 3 4.9 1.2c-1 3.7 2.8 5.3 6.1 5.8l-1 4 5.5-2c1.5 3.9 2.7 2 3.3 2.3.3.2.2 1.4.7 1.6 1.2.3 4.2-1.8 6 2.1l1-2 1.5 3h2l-1-3h3l.5 4c2.6-4.2 7.7 1.6 9-3l1.4.1.6 2h2l1-2.1h2.5l-.5 3c4.1-.6 4.9-2.8 8-5l2 2c1.3-1.4 2-2.3 4-3 2.7-1-.8 3.4 2 2 1.8-1 4.6-3.8 6.6-4.5 1.4-.4 2.8.6 2.9.5.3-.3-.7-3.6 3-4.4 2-.5 3.5.8 4.8.2.3 0 3-4.5 4-4.8 1.5-.4 5.7.5 6.2 0 .3-.4-.6-3 1-4.5 3.2-2.8 8-2.7 11.3-3.5.8-.2.7-1.8 1.4-2h10.6c.6.2 1.3 3 3.7 2l-2 5h3c-1.1 1.8 0 4-.7 5.8-1 2.5-3.8-.6-.4 4.6-2.6 2.4-2.8 3.2-1.9 6.6l-5-2c.3 4.4 3 6.2-1.9 8.6l.9 3.4-4-1 .7 1.8-1.6.7.9 2.5-4-1 3 4-3.4 1.1-1.1-2c-2.6 2-8.4 5.5-6.5 9-8.9-2.5-11.2 8.4-18.7 10.8l-2-2-5.3 1.1 1 4c-5 1.6-5.4-.7-9-2l-.7 3c-7.3 1-15.6 5.3-22.9 3.1l-1 2c-4.4-3.2-11.7-.9-14.7-1.2-1.2-.2-9.5-6.2-11.7-5.9l-.6 3c-2.1-1.8-4.9-1-7-1.9-3.9-1.5-3-6-10.4-4.2v-2.9l-3.4 1c-2.4-4.7-2.7-1.8-5-2.3-5.7-1.3-3.9-3.7-4.6-4.7-.1-.1-1.6.9-2.4.7-1.4-.3-2.7-2.7-4.6-2.8l1-2.9-4 1v-4l-4.6-1 .6-3c-2.8-1.2-1.4 3-3.5 2-2.3-1-2.1-3.2.5-3.5-3.7-2.9-7.2-2.6-6-8.5h-3l2 2.5c-1.6 1.7-3.6-1.9-5-3l2-.5c-.6-3.9-.5-5.6-4.9-5.1-2.3-3.2 1-4.7.8-8l-4 3v-6.9h-3l1-3.5-3-.5c.9-3 3.8.6 3-3l-4.9-3.6v-2l2-1-.1-1.9c-4.3-3-5.4-4.3-4.5-9.6.2-1.2 1.6-2.2 1.6-3.4 0-.5-1.5-.4-2-1.3-3-7-.3-4.4.8-8l1.2-11.6c0-.7-1.9-.6-2.4-1.9-.8-2 0-4.6-.6-6.7l4 2-3-6 3-1.5-2-4 2.9-2v-2.5l-2 .5c3.7-3.3 1-6.8 4-8l-1-2.5c2.7.5 3-.5 4-2.5l-2-1c-.4-5.7 5.7-6.2 6-6.5s-.2-7.6 0-9c3.7 1.7 5-5.7 6.3-6.8 1.5-1.3 4 1.9 1.8-4.2h2.9v-4l5-.1c.3-3.1 1.1-7.4 5-6l-1-3 2.6.8c1.5-3.6 3.6-2.1 5.5-3.2 1-.5 0-2.2.1-2.4a79 79 0 0 1 38.4-14.2c3.4 0 9 2.6 10-1 .8 1.6 2.1 1.1 3.2 1.5Zm10.3 31.5c-3.8.5-5.8 2.1-9-1 .3 3.8-2.4 1-4.3 1.3-1.1.2-2.1 2-4.1 1.8-.4 0-1.4-3.8-5.6-2l2 3-3.6-1-.9 2-3.5-2c.5 2.6-2.1 5.4-4.5 4.8-.8-.2 0-3-2.5-1.9l1 4c-3-.1-4.4 3.3-6.5 0-2.1 1-.6 4.7-1.6 6 0 0-1.3-.7-2.4 0-2.3 1.2-2.6 3.7-5.5 3l3.5 1 .5 2h-5c.8 2 2.9.5 2 4h-4v5h-4l3 5c-.5.5-7.7-3.4-4.2 2l2.2.5c-1.5 3-3.9 2-2 5.5h-3c-1.3 2.7 2 3.2 2 3.6.2 1.8-2.2 5.6-3 7.4l3-1c-.8 3.7-1.5 5.1 2 7.5l-3 1.5c3.8-2 8.5 1.5 10.5 1.6 1.4 0 9.9-3.4 12-3.5l1 2c2.5-2.6 6.6-3 9.7-4.2 1.4-.5.2-3 4.8-.9v-3c4 3 5.6-1.4 6.2-1.7 6.5-2.7 12.7-4 18.5-9.6 1-1 7.8-9.6 8-10.3 1-3.3 2.3-3.7 2.3-4l.7-6c.3-2-.8-4.9.3-7.4h-3c2.7-7.2-.8-4-2.7-6.2-1.8-2-1-7-6.7-4.9l-1.1-.9zm-202-118c.1.1 2-1.2 3-.5s1.5 3.9 4 3.6l-2 3c4.2-.5 5.4 3.6 4 7h3l-1 7 3-2-.1 4.9h-3l1.1 7 3-2c1.2 3.8-3 2.9-3 5.4 0 3.3 1.5 6 3 8.1l-3 4.5 4-1v3l-2-1v14l3-3-2 9 3 .5-.5 2.5-3.5-.5 3 1.6-1.5 6 .5-2h3v5h-4l4 4.4-3 2.5c4-1.3 4.4 2.4 5.7 3 7 3.8 23.7 4.7 31.8 4.8 1.8 0 9.8-1.3 10.5-.8l-.5 3 4-3 3 4 3-3 3 5 1-2c4.8 0 3.9 2.8 5.6 4.4 3.2 3.2 5.7 3.8 5.8 9.3 0 3.8-3.8 9-8 7.3v3l-5-2v4c-2.2.8-5.1.5-7.2 1-.9.3-.7 2-1.4 2-1.2.2-2.6-.9-4.4-.6-.6.2-4.8 4-6.4 4.6l-2-3c-3 2.7-4.6 3.2-8.5 2l1 3c-3.4-1.2-4.4-.8-6.5 2l-1-4c-2.8 2.3 1.3 4-3.1 5l.6-3h-3.5l-.5 3c-1-.6-8.4 0-8.8.2-.6.4-.5 2.2-1.9 2.7-1.5.6-7-1.2-7.3-.9l.6 3.1c2.5.3 3.3 1.3 4.4 3.4l-3-.5 1 3h-3l1 5.4-3 2.1v1.5l4 2-1-2.5 3-.5c.8 3.1-3.2 4.1-3.8 5.6l-.8 8c.3 4.9 4.9.4 3.6 5.8-.3 1.1-3.4 1-3 3.1l2.5.5.5 2c-3.6.2-1.5 3.5-5 4.6l2 5.4 3-2-3 6.5 3 1-4 5 5 3.6h-4l3 6c-6.9.1-1.3 2-1 2.7 2.8 6.7 1.1 11.6 2.4 15.3.8 2.4 3 2.5 3.4 3.2.3.5-.6 1.9-.2 2.7 2.2 5 6.7 12.5 9.7 16.7 1.9 2.8 8.5 2.7 7.7 7.3l2-1 1 3.6 5-.6-1 6 5-1c-.4 1.9 1.6 5.8 1.7 6.7 0 1.8-2.2 5.3-1.2 8.4h-3.5c.9 3.1-3.3 3.8-5.6 5.3-.6.4-.5 2.9-2.4 1.6-.3-.2.7-3-2-2v3c-2.1-1.2-5.5-.1-5-3l-1.6 2c-2.7-2-5.7 0-7.8-.3-5.3-.8-10.3-5.6-15.6-4.7l1-3c-3.9 2-6.1-1.8-8.4-3.6-.6-.5-2.1-.2-2.4-.6-.7-.7-.6-4.4-1.3-5.8l-4 1v-6c-1.4-1.4-3.2 4.9-5 .5-.8-2.1 3.4-.8 2-3.5-7.6-.6-6.1-10.5-4-16l-6 4c-.5-2.4 3-3 2.9-5.3-.2-2.4-2.5-4-4.9-3.7 4-3.7.6-4.9.2-7.7-.2-1.6 1.1-3.5.8-4.7-.5-1.7-5-.7-1-7.6l-3 .5c2.7-3.5 3.5-2.1 1.9-7.4-.6-.6-4.3 1-2.9-2.6.4-1 3.9-.2 4-2.5-2 .3-2.2-1.2-2-3l-2 1c1-2.9 1-3.6-1-6l4 .5-3.9-4.1 1.9-3.7-3-3.2c4.7-1.7 5.8-9 0-8.5l3-4.5-3-.5c-.7-2.7 1.7-1.9 3-3.5-.8-1.9-2.9-.3-3-.5-2-4 4.3-5 3-7l-3-1.5v-2c4.2-1.1.9-5.7 1-8.8l-3-.7 3-6.5c-4-.9-3.5-3.6-4.6-4.5-2-1.8-6.7-2-9.3-2v-3c-2.9 2.3-8.2-.9-9.4-.8-1.8.2-5.5 3.2-8.7 1.8l2-3c-2.6-1.3-3.2 2-3.5 2-1.6 0-4.3-1.3-6.4-1.5-1.2 0-2 1.4-3 1-1.3-.3-3.2-2.7-5-3-.4 0-7.3.9-7.9.4-.4-.3-.4-2-1.1-2.4-1.6-1-3.7 0-5.4-.6a47 47 0 0 1-9-9c-.5-.8-1.9-7.5-1.7-8.2.2-1 2.9.2 1.2-4.5 1.5-.5 8-7.2 8.5-7.2 1.1 0 3 1.2 3.3 1s.5-3.3 2.7-3.8c1.2-.3 2.6.7 3.7.5 3.5-.7 18.5-4.9 21.4-3.4.4.2-.1 2.5 2.7 1.8.4-.1.4-1.9 1.2-2 6.4-1.5 6.5 2 6.9 2 1.4-.1 2.1-1.6 3.2-1.8 1.8-.4 4.6.7 6.8.6 3.8-.3 6.7-3.4 11.4 1.1l-4-5h5c.9-3.2-2.7-1-2-3.5.3-.9 1.9 0 2-1.1 1.3-6.7.2-12.2 3-19l-2-.9c3.2-4-1.6-6 3-10-1.2.4-3-6.2-3-7 0-.3 5.3-2.3.1-3.5v-2c6.1-1-2.9-8.6 2-12.5l-2.2-2c2.8-5 3.6-9.1 1.1-14.5l3-1-3-1.5 3.1-2.1c-2-5.4-1-6.4 2.4-10 .4-.4 1.7-.2 2.2-.7 1-.9 1.7-5.9 4.8-4.7.7 4 4.8-.6 8-.8 2.5.4 2.3 4.6 2.6 4.8m-168 103v3c2.7.6 1.5-.6 2.5-2 1.3 3.7 5.8 3 6.2 3.3.7.4-.4 3 3.3.7v3c5-2 3.1-.2 5 1.4 2.1 1.7 4.5 2.5 5.1 5.5l3.9-.9-1 3 2.4-1c1.8.7.6 2.6.8 2.8 1 1 6.1 3.2 7.5 5.5 1.7 3-.8 7 5.3 5.7l-1 4 3-1c-1.9 3.5 1.7 4.5 4 6.5l-2 3.5h4l-2 4c4-.9 2.6 2.5 5 4.5l-2 1.5c5 .3 2.7 4.2 3.1 4.8.5.7 4.6 1.3 2.4 3.2-.7-.8-2.6-2.8-3.5-2-1.5 1.3 3.4 3.1 3.8 5.8.3 1.8-1 3.4-.8 5.2l3-1c-4 3.9-.6 4.5-.2 6.7.3 1.4-2.6 3.3-1.8 5.3l3-1-2 2.6c-.7 1.8 1.6 1.2 1.8 2 1 3.7-4 7.1.3 8-.2 4.7-2.8 10-3.6 14-.5 2.6 2.9 6.6-3.5 6.4-.2 1.7 2.9 1.3 3 2.5 0 .9-6 9.7-5.5 11.5h-3.5c1.6 4.3-4.2 13-7 16.5-3.4 4.2-9.4 7.5-12.6 10.5l-2.3-1c-1 2.8-3.3 7.6-6.5 7-.5 0-.5-1.5-.8-1.6-4.2-2.2-5 1.1-2 4.1l-2.3 2.5c-3.4.8 1.4-4-2-3-2 .7-7.5 3.6-7.5 6h-2l-.6-2c-5 1.4-8 4.5-13.5 3.4l-1 3.6c-2.2.2.6-3.4-2.4-3-2 .3-2.6 2.2-4.3 2.8-.8.3-7.3 2-7.9 2-2.4.1-3.5-2.3-5-2.5-1.9-.3-4.8 2.6-4.3-1.2l-1.6 2-3.3-.2-.1-2.9c-1.9-.7-3.6 1.6-4.5 1.7-2.4 0-5.5-5.6-8.5-1.7l-.2-2.8c-2.6-1-8.6-1.5-6.8-5.2-1.8-.6-2.5 1.7-3.5 1.7-1.1 0-9-4.6-8.5-7.3-6 2.7-5.7-7-11-6.8v-3.6c-4.3 1.8-6.1.4-4-4h-4l1-4-4 .5 1-3.5-4-1.5 3-.5-3-1 1-5-4 1 1-6h-2.8c-.5-3.8-1.2-7.8-4.2-10.5l5-1.5c-1 0-5-3.3-5-3.6-.1-1.6 3-4.8-1-4.4l2-1.6c.8-3.5-3.1-4-3-7.9 5.6-.8 1.7-1 1.2-1.6-.3-.4.9-2 .6-3.1-.2-1-1.8-1.8-1.8-3.3 0-.9 2.4-.5 3-2 .7-2.7-3-6.2 4-6.5l-5-1 1-7 3 1-2-6.4 3-1.7-1-2.9 4-1c-3.2-3-.7-6.7 1-10.2.6-1.1 3.6-4.7 4.4-5.9 2-3.2 4.1-10.3 8.6-9.9l-1-3h2.9c-1.4-3.3 4.5-5 7-6l-1-2c4.6.9 4.6-6.4 9-4l-.9-3 3 .6c1-5.7 4.8-3.7 8.8-5.3 2.6-1 4.8-6.8 9.2-3.3l-1-4c4.7-1.6 1.7 3.7 4.5 3 2.2-2.7 8.1-2.9 8.5-6 3.8 4 4.8.3 7.4.1 2.2-.1 6.3 2.1 8 2 .6-.1.5-1.8 1.2-2 7.6-2.1 11.5 1.5 17.9 2.4 1.2.2 2.3-.6 3.5-.5m1.7 42.3c-4.1-3.8-10.6-6-15.7-7.8-.9-.4-1.6-2-2.6-2.3-1.6-.3-3.3 1.5-4.9 1.4-5.4-.4-12.9-1.7-18.7 1.4-1 .5-1.2 2-1.9 2.4-2 1-7 2.5-8.6 4s-1 6.6-6.3 3.6c2.4 6-2.6 5.8-3 6.7-1.2 2.2-2.8 7.8-2 10.3l-4 1.6c5 4-3.8 10.7-2.7 13 .3.6 1.7 0 1.8 1.9l-.3 6.8c-.1.8-1.6 1.8-1.7 3.2-.4 3.5 3.9 3.4 2.9 5-8.9 3.3 0 3.8 1.5 8.6.8 2.8-.3 5.6 3.4 8.6l-1.9 3.3c5.4.2 6.4 4.1 6.1 9 4-.7 2.3 2.2 3.5 3.2.6.5 2.5 0 3.4.5 2.5 1.4 6 4 7.5 6.3l1-4c2.3 3.2 2.2 4.8 6.5 3l-1 3c2.5 1.4 3.2-2 3.5-2 1.6.2 2.2 1.6 3.2 1.9 2.1.4 6.2-2 9.3.1v-3l4 2v-3h8l-1-2c3.5 1.9 8.4-2.8 11-5.5a60 60 0 0 0 13.5-23.4c1.2-6.5-.4-11.4 2.6-17.5-3.7-.8.7-3.8-3-6l2.9-1.6v-2c-2.8 0-3.6-4.6-4.4-7.1-.7-2.4 1.5-3.5-1.7-4.4 2.1-4.7-.2-2.8-1.3-4.5-1.5-2.1-1-5.2-2-7-.7-1-2.4 0-3-.8s-3-6-3.9-6.8Zm-502.1 28.2c.2.1.3 1 .7 1.2.7.4 4.7 1.3 5.7 2 2 1.4 6.4 5.7 6 8.3l2.5-2c2.5 4.7 10.7 6.7 8.5 13l4.5 1c1 1.2-.8 2.7-.4 3.8.3.6 9.9 6.5 3.9 8.7v2l5 4v2l-2 1c2.8 3.5 2.5 5.3 3 9.5l-3-3c-1.3 3.9 3 5.8 1.8 9.4-.5 1.3-2.2 1.2-2.6 1.8-.3.3-.4 5.7-.7 6.8l-3.5-2 1 8-2.5-2-3.1 3 1.6 3h-4v4l-4-3c-.2 1.3.9 2.8.4 4-1.3 3.7-3.6-.5-5.4.5-2.7 1.3-.9 4.3-2 5-3 1.9-10.1 3.5-13 .5l-1.5 3-3-3c-1.6 4.1-4.4 2.9-7.8 4.1-.7.3-.7 2-1.4 2-1 0-2.6-1.2-3.4-.6-.6.5-.6 2-1.1 2.3a69 69 0 0 1-13.1-.8 134 134 0 0 1-10.1-4.9c-1.4-1.2.7-3.8-4.7-3.5-1.2-4.3-5.2-7.4-8-11v-1.5l2-1c-2.5-.2-4.8-4.6-5.6-6.9-1.4-3.9-.4-6.1-1-9-.5-2-3-5.3-3-5.6 0-.8 1.7-1.7 1.5-2.9-.1-.9-1.8-1.6-1.9-3.1 0-.7 2-.4 2.1-1.2.4-1.8-1.1-4-1-5.9l3-.5c.4-1.7-1.8-.4-2-1.6-.2-.6.6-7 1-7.6.6-1.2 2.5-1.2 2.7-2.2.1-.9-1.2-2.5-.6-3.4.3-.5 2.6-.6 3.4-2.2 1-1.7-1-4.3 1-6 2.4-2.7 5.2-.7 5.5-1 2-2-2.6-1.6-2-3 3 .7 1.3-3.3 3-4.5l3 .5-1-3 3 .6c.9-5 2.7-2.9 6.6-4.5 2.5-1 3-3.8 4.3-4.5.7-.3 2 .3 3 0 12.3-4.4 16.3-4.4 28.6 2ZM981 913.8c.5.6-.9 5.7 5.5 3l.5 3 3-3c0 5.5 6.7 6.1 11 5 .2 1.8-2 4.8.5 6 2.1 1 .7-3.1 3.5-2v6h4c-2.4 4.6 1.3 3.3 1 7l3-1-1 4h3l-1 3h3l-1 2.9c5 .9.4 3.8 4 4.6l-2 3.5c5-1 3.7 5.8 3 9l3 .6c-.7 4.4 1.7 8.3-1 12l2 1c-1 1.8-.6 4-1 5.7-.5 1.4-.8 2.3-1.4 4.8-.9 3.3-2.2 6.5-2.7 9.9h-4.9c-.4 1.7 2 .5 2 1.6.1 3.8-3.4 3.2-4.4 4.5-2 2.2-.3 5.1-6.6 4v4l-5-2 1 4c-3.2 1.1-2.7-2-3.5-2-2.4-.5-1.3 1.5-1.5 3-2.3-1.3-4.4-.2-6.3-.4-.9 0-1.7-1.4-2.2-1.4-.7 0-1.8 2-3.3 2.5-6.3 2.2-16.2 3.2-22.2-.3-3-1.8-1.3-5.5-8-3.9l-2-3c2-1 2.4-1 2-3.6l-4 2 1-3.8-4-2.7 2-4-4-3 2-3.5-4 1 1.9-2.5-3-4.5h2l-3-2.5c-.2-2.3 5.6-1.2 3-4.5-.3-.5-4 1.5-3-2.5l3 .5c.7-.5-2-8.6-2-9.4 0-.3 5.8-3.9 0-4.6l-.9 3c-1.8-3.9 2-5.3 2-5.6.2-2.3-2.5-2.9 1-3.9-2.8-3.4-.4-3.6-.3-6.4.2-3.3-3.7-8.9.3-11l2 4c1-2.6-1.4-7.8-1-9.5.4-1 2.3-1.2 3-2.4 2-3.7 1.3-9.6 8-6.2v-4l1.8.8c2-4.9 5.3-3.4 8.2-4.2 1.6-.4 3.9-2.2 4.5-2.2s1.5 1.4 2.8 1.4c1.4 0 6.2-2.3 6.7-1.8m23.8 125.2c.2.1.2 1.1.4 1.5 4.6-1 16.8 5.5 20.4 8.7 1.7 1.4 4 4.6 2.4 6.6l4-1-1 3h4l-1 3c.8 0 2.1-.3 2.8.2l4.8 8.8c.8 2.4-2 4.7 2.4 5l-2 2.5 3 .5-3 2.5c7.9 4.2 2 6.6 2 7-.1 1.6 1.3 4.2 1 7-.2 3.2-3.2 3.9 0 7.5l-2.8.2c-1 4.3-2.1 9-5.7 11.9-.9.8-2.2 0-2.4 0-1 1.4.4 5-3.5 3l-.6 3-2-2c.3 3.7-6.5 3-7.8 4.2-.4.3 0 1.9-.4 2.4a72 72 0 0 1-7.4 3.4c-1.8.2-1.2-1.9-2-2-5.8-1.3-7-.9-11.7 0-6.6 1.4-9.7-.4-15.5-3.8-1.5-.9-2-2.8-2.5-3-.6-.5-4.3.6-5.6-.4l-1.6-4.9-2 1.7c-3.5-1.6-1.8-3.7-1.5-6.7l-2.5 2c-.6-.6-1.7-1.3-2-2-1.9-4 3.8-5-4.5-6l1-3.9c-5-1-4.8-6-3-10h-3c-1.3-2.5 2-1.9 2-2.6 0-1.4-1.5-2.6-1.7-4.1-.7-5 3.2-17.5 4.7-22.6.3-1 2-1.3 2.8-2.4 1.5-2.2 3.4-6.6 5.1-8 2-1.6 4-1 4.9-1.6s.5-3 1.4-3.6c2.2-1.6 9.3.9 7.8-4.2l2 .7 1 2.3c.2-4 3.5-2.5 6.2-3.3 8-2.2 4.7 0 9.3.2 1 0 2.2-1.2 3.3-.7M988 788.8l7.5-3c2.4 1.6.8 2.9.5 5l3.8-.2 1.2-1.8 2 3 .5-4c1.7 1.5 3.9 2 5.8 3 1.1.7-.1 3.3 3.7 1v3l4-1-1 4c2-2 6.2 1 6.8 2.3.4.9-1 1.8-.3 2.7.7 1.4 2.7-.2 3.5.5 1.1.9.4 4 3 3.6l-3 3h5l-2 6 4 1.4c1 3.4-2.7 3.2-3 3.6s3 2.4 1.6 7c-.7 2.3-2.7 2.2-3.1 2.9-1 1.6 2.7 2.7-2.6 3.6v5.4h-2.9l.1 3.4c-1 1.6-3.5 1-4.8 2-3 2.2-.2 7.7-8.3 5.7l3 1.4-4 .5v3c-2.7.8-6-2.2-7 1l2 1c-6.4 0-12.8 3.8-19 1 1.8 3.2-6.4 4.8-8.6 5-4.2.3-6.3-.5-10-.9-1.3-.1-2.8 1-3.3.7-.1 0-.2-1.4-.8-1.8-6.7-3.2-8.5-3.7-13-9.9-1.3-1.9-3.5 0-1.3-5l-3-.1c.8-3-1.3-4.8-1.8-6.7s2.1-2.9-1.3-3.8l1.1-2.9c0-.6-1.8-.5-2-1.2-.3-1.1 1.7-18.2 2.2-19.8s4.2-1 5.2-4.6c1-3.4-1.5-5 1-7l4.4 1.9 2.2-3.4-3-.5c-.1-3.3 3.5-4.6 4.5-1 2.2-2.4 3.8-4.5 7.5-4l-2-3 3.5 2c1.7-3.2 2.4-4 6-2l.5-2h2c-.1 5 11.5-.1 12-3zm-293 171 .5 3c1 0 0-1.7 1.2-2 4.7-1.2 15.6-2.3 17.8 3l2.5-3v4l3.5-1.8 2.5 3.8h2c.1-4 2.8-2 2 1l4-1v5l5-1.5 3 7.5 3.5-.7 1.4 1.4-1 5.8 4-.5c1.1 4-2.5 2-2 5 5.2-.3 4.5 4.1 2 7 6.2-.3 6 7.3 2 9.5l3 4.5h-4c-.9 2.7 1.9 1.6 2.1 2.7.7 3-1.4 9.7-5 7.3.2 1.9.1 3.3-2 3v2l4-1.5c-.5 3-2.6 4-5 2.5l1 4h-6l1 5-5-1.9c0 3.1-4.7 1.2-3.2 4.8l-2.7.3-.1 2.8c-3.4 1.2-2.6-2.3-4.4-1.9-5.8 1.4-1.2 6.5-10 5.8-2.7-.2-7.1-1.2-10.3-1.5-1-.1-3 .9-3.3.6v-2.9c-.7-.6-4.7.4-6.4-.2-1.3-.5-1.3-2.3-1.9-2.7-1-.6-3 .2-3.6-.3-.5-.4.4-4.5-5-4 1.2-5.5-3.3-3.2-4.7-5.9-1-2 2-5.5-3.4-6l2-3h-3l1-4-2.6.8-1.4-1.3c3.4-4.1-1.2-5.4-2-10.1-.8-4.9 3-8.5 1-13.4h3c.8-3.3-2.5-.8-2-3.5 0-.8 1.3 0 1.9-1.3.8-1.8 1.6-5.1 1.5-7.2 4 .3 3-4.5 5.1-7 1-1 2.3-.7 3.1-1.3 1.4-1 .7-3.8 4.3-1.7l-2-2 1.5-2 3.5 2-1-4 4.5 2c3-1.2-1.7-5.8 2.5-5Zm121.8-104.2c.3-.2.3-2.9 3.2-1.8-3.4 3.9-.5 5.7 1.5 1 1.1.6 2.5 2.2 3.6 2.5 2 .6 6.2.7 9 2 2.4 1.2 1.6 6.3 7 3.5l-1 4 3-1 .1 2.8c3.1.2 8.4 10.2 9.3 13.2.2.6-1.9 8.6 1.6 8.5l-3.1 7 2 1-.2 1.8-4.8 5.3c3.2 5.2-2.7 4.1-2 8.4l-2-.5 1-3.5c-3.9.2-4.2 4.8-2 7l-2.8-.8-.8 1.9-2.4-1v4h-3.5l.5 3-2.5-2c-2.4 2.3-4.9 4-8.4 4.1l-.1 2.9c-4-.9-9.3 3.5-14.5 2.8-2.8-.4-6.9-3.3-8.3-3.8s-7.6-1-8-1.2c-1-.7-2.8-4.4-5.8-4.8l.6-5-2.5 1.9c-2.7-1.9-3-5.3-3.6-8.3l2.1-1.6-3-.6c1.7-3.8-1.7-5.6-1.8-6-.7-3 1.7-10.7-.2-14.4l3.5-1c-.4-1.3.6-3.6.5-4.4 0-.4-6.1-3.7 2-2.6l-1-3h3l.1-5h3l-1-2c4 .9 2.4-2 3.2-2.8.4-.4 1.9 0 2.4-.5.2-.2 1.5-4 2.6-4.5 3.8-1.3 5.1 3.8 5.7-4.2 5 1.7 3.3-.2 4.8-1 .7-.3 2.1.2 3-.3.7-.4 1-2.6 1.7-2.7.6 0 2.8 2.8 5.3 1.7m-374 147.4c.3.3.1 1.7.6 1.7 1.8 0 2.4-1.5 5.6-.4s-3 1.6-1 3.5c1.1 1.1 3.5-2.4 4-2-.3 4.6 5.2 3.8 3 8l4-.5c1 3 6.6 5.2 7.5 7.5.4 1.3-1 3.5-.5 4 .2.2 2.4-.2 3.5 1 1.5 1.7 1.2 5 1 7.1l3.5 1 1 7.4-2.2.5c-3.4 5.2 2.8 1.6 3.2 2-.5 2.2-.5 5.4-1 7.3-.3.9-2 .7-2 1.4-.2 1.6 1.6 3.9 1 5.7l-1 1.2c-6.6-.1-4.4 5-7 9l-4-.6v4l-1.5-2c-3.4 6.5-8.2 5.7-14 6.7-1.4.2-4.5 2-5 2-1.4-.2-2.9-2-4-1.7s-1 2.9-2.1 3c-2.9.4-6.8-1.1-9-1.5-1-.1-2.3.6-3.6.4-4-.8-4.2-4.4-5.8-5.4-2.7-1.5-4.6 1.6-4.2-4.4-.8.2-5.7-3.3-5.9-3.7-1.3-1.7 0-3.9-.3-5-.2-1-3.5-1.5-3.4-5 .1-1.5 1.5-2.4 1.5-2.9 0-.8-3-2.7-3.3-4.4-.3-1.6 1.6-3 1.6-4.6-.1-1.7-3-4-1-7.5l2 1c-.3-4.6 0-17.4 7-15l-1.3-3.7c.4-1.1 1.7-1.2 2.3-2 1.4-1.7 4-5.4 5.9-6.9 4.1-3.1 20.6-8.6 24.9-6.1m93.8-259.9c1.3 1 11 10.1 11.2 10.8.4 1-.6 2-.8 2.8l3.6 1c-1.3 4.3 1.5 2.8 2.4 4.5 1.1 2.2-2.5.9-2 2.5h3l.2 6.9 1.8.6-2 .5v2c5.3.7-1.3 10.2 1 14h-3l.9 2.6c-3 4.4-11.7 14-17.3 16.5-4.8 2.2-11.3 3.3-16.2 6l-2-2c-1.2.2-2.4 1-3.7.8-1.2-.3-7-5.8-8.4-6.9-3.2-2.5-5 0-3.3-7h-4c-.3-.3 3-4.9-.3-7.8-.7-.6-2.5 0-2.7-.2-.4-.3 1.2-2.8.8-4.2s-2.3-2-1.8-3.8l2-.5-2-1.1c.3-2.7-.4-5.3-.5-8l-.3-4.7c.2-1.3 2.7-2.6.8-5.7l3 1-2-2.5c3-2.1.3-6.4 4.9-5.6-.8-5.2.9-4 2.6-5.9 3.2-3.6 7.9-9.2 13.1-9.7 1.5-.1 3.2 1 4.9.7 8.2-.9 8.5-3.2 16.1 2.4M369 848.7l.4-1.8q7.7 1.5 14.8 5.2c2.6 1.4 16.8 14.2 17.7 16 .4.7-1 1.8-.7 2.5.1.4 4.3 4.2 4.7 5 2.8 4.8-1 4.4-.9 4.7 5.4 2.7 2.5 3.6 2.5 6 0 .8 1.3 1.5 1 2.6-.2 1.2-2.2 2.5-2.2 3.4 0 .7 1.7 1.6 1.5 2.8-.3 2.9-4.2 4.7-6.8 4.7l1 4-5-1 3 3c-3.8 0-4.4 4.3-7 4v-2l-1.2 1.9-2.3-.7-1.4 1.3.9 2.4-5 1.1v-3h-3v3c-.4.4-1.8-1.5-2.7-1.8-4.6-1-10.3 4.2-13.7 3.9-1.3-.2-2.2-1.5-3.4-1.8-1-.3-2.4.7-3.3.2-1.8-1-5.6-5.5-7.2-7.1-.6-.6-2.6-.4-3.2-1.3-1.4-2 1-4.3-4.1-5-1.2-1.4.4-3.4.2-4.6s-2-1.7-2.1-3a36 36 0 0 1 4.2-25.7c.4-.8-.6-2-.2-2.8s12-12 13.2-13c.9-.7 2.9-.5 4-1.3 2.5-1.8.3-5 6.2-1.8Zm320-36.9c4.5-1.7 8.8-4.7 13-.5l-1 2c4.4-.8 3.9 2 6 4 4 3.3 6.3 1.6 4 9.5l4-2c-.5 6.3 3.9 13.6 2.8 20.3-.5 3.2-3.7 8.1-4.7 10.4-.8 2 1.1 6.6-5.1 5.3l2 4-8 1c1.5 6.2-5.5 5-9.3 6-1.1.3-.9 2.1-2.1 2.6-.4.2-7.4.6-8.1.5-3.8-.4-7.8-2.6-11-4.2a86 86 0 0 1-8.6-4.3c-1-1.6-.6-3.6-1.1-4.4-.3-.4-5.5-2.3-6.8-5.7l2-2c1-3.7-4.1-6.2-4.5-9-1-5.5 3-2.1 3.5-2.5l-3-6 3.5.8 1.5-3.8-3.5 2c-2.6-3 1.5-4.3 1.5-4.6 0-1-1.2-2.4-1-3.8 0-.7 1.7-.6 2-1.3 1.7-3.2 3.6-9.5 8-7.3-.8-2.8 10.2-10.8 12-11.5 1.2-.5 2.1 1.7 3.4 1.5 2-.5 1.9-4 8.9-1.8 4 1.2-.7 4.5-.3 4.8m-89.3 227.3c1.4.8 8.9 6.6 10.4 8.2.7.8 0 2 .2 2.3 1 1.3 4.7 3 5.7 5.7l-3 1.5c1 .1 2.4-.5 3 .7.6.8 1.9 12 1.7 13.6-.4 3-4.9 12.8-6.7 15-1 1.1-2.1.7-2.6 1.1-6.1 6.2-11.2 9-20 8.8-.2 0-1 3.3-4.4 1.8l3-3c-2-.8-6.7.1-8-.4-1.4-.7-2.5-3.2-4-4-2.4-1.2-1.1.1-4.3-2.2-.8-.6-2.3-.2-2.6-.4-.6-.7.2-3 0-4.2-.3-1.1-2.4-1-3-2.4-2-6-4.2-19-2.5-25.3.6-2 1.9-1.9 2.3-2.9 1.6-3.9 2.2-10.8 7.1-9.2-.3-.5-.7-1.4-.4-2 .4-.7 13.7-6.8 14.9-6.8 1.6-.1 11.4 3.2 13.2 4.2ZM272 716.8l1 6 2-.5-2-3.5 6 2-2 3.5c0 1 6.1 3.6 7 5 2 2.6-.4 5.6 4 7l-3 2.5 4 1-2 4c6.5 1-1.8 6 0 8 2 0 3.6-.8 3 2h-4c-1.2 3.3 3 2.7 2 5.5-.4 1-1.8 1.8-3 1.6l-1-3-1 4.4 2 1c-3.7 4.4-2.1-2-4.5.6l1.5 3c-2-.6-2.3 2-3 2.4-2 1.1-1.4-.4-6.1 3-6.5 4.5-20.3 3-26.5-1.4-1.4-1-.5-2.6-.7-2.8-1.2-1.3-8.2-8.5-8.5-9.4-.2-.6 1-2 .8-3.3-.6-3.9-5.3-5.1 0-9.5l-3-1.6c.4-3.1 1.3-4.5 4-6l-2-2.4h3c-3-5 .3-4.6 1-5.7 3-5.8 4-9.4 12-7.4l-3-3a51 51 0 0 1 14.7-3.7c1.8.1 4 2.6 7.2.8ZM821.8 767c.3.4.2 1.3.2 1.8l1.6-2c2.4-.4 3.8 1.8 5.5 2.5 1 .5 2.4-.4 2.7-.2.7.4 1.1 3.7 4.2 2.7l-1 3c8.6-3 5.6 5.6 6 6 .3.3 2.5-.6 3.9 1.7a23 23 0 0 1-2 25.7 54 54 0 0 1-13.4 8.6c-1.3.2-17-.3-18-.5s-9-3.4-9.3-3.7 0-2-.5-2.4c-1.7-1.6-3.5-2-5.1-4.5a24.5 24.5 0 0 1 5.4-33.4l4.8-3.4c1.6-.5 14.4-2.4 15-1.8ZM260.6 972.2a74 74 0 0 1 12 11c3.3 5 6.8 15.3 4.6 21.2-.5 1.5-2 1.4-2.1 2-.1.9 1.7 2.3-.6 3.3l-2.4-.9c-.3 3.6-4.3 10-8 8l-.6 3c-3.6-3-6 1.7-7 1.8l-9.7-1a51 51 0 0 1-11.5-5c-.5-.6 0-2-.5-2.5s-2.3-.4-3.3-1.3c-1.3-1.2-.5-3.3-1-4-1.6-1.9-5.3-6.5-5.4-9.4-.1-2.4 2.8-4-1.1-5 0-1.3 1.3-2 1.6-3.3a31 31 0 0 1 15.5-19.7c7.3-3.6 12.5-2.3 19.5 1.8M741.8 1117c1 1 1 3.4 1.2 4.8 2.4-1.1-.8-4 4-3v3h5l-2 4 2.5-2 2.6 7h4c-1 2-1 4.8-.5 6.9.8 2.4 3.6 3.3 3.3 6.7-.2 2.5-3.9 3-2 6.4l-2.9-1c-1.3 3.2 3 2.7 2 5.5s-4.6.1-6 1c-2.4 1.3-1.1 3.9-1.3 5.3-.6 4.8-4.2.6-5.2.6-1.8 0-3.7 3.5-4.2 3.6a54 54 0 0 1-19.5-3c-1.2-.5-1.3-2-1.8-2.3-1.3-.7-2.7.3-4.5-1.7-.8-1-3.2-5.5-4-7-.4-1 .4-2.4 0-3-.6-.7-2.4-.6-2.6-1.6a57 57 0 0 1 .5-12.3c.2-1.4.7-6 1-7s4.7-7 5.6-7.7c2-1.7 3.7-.5 5.2-1.3 1.1-.6 1-2.2 2.2-2.6 2.5-1 15.2-1.4 17.4.8Zm-393.7 43.7 4.9.1c-1.1 4.1 3 4 2 8h4l-1 7.5 3 1c.4 3.4-1.2 7.4-1.5 10-.1.8 1.6 1.5.8 3.2-1.3 3-6.9 3.9-5.3 8.3l-3-1c.8 3.5-5.5 5.7-8.5 6-2.8.2-6.2-.8-8.9-.9-1.5 0-3.2 1.2-5 1-.7-.1-.6-1.6-1.3-2-.9-.7-2.5-.6-3-1.4-.5-.5 0-2.1-.4-2.5-.6-.5-2.7.2-4.4-1.2-4.7-3.8-6.4-8-7-13.4-.3-2-3.3-3.5.5-6l-2-1c-.2-1.2 1.2-1.9 1.3-2.6.8-3.4 2.7-8.4 5.7-11.5 2.4-2.6 9.1-7.9 12.5-5.5l-.5-2c3.5 1.8 7-.8 10.3.2 1.7.5 2.5 3.2 5.7 2.2zM145 869.8v2l-3-.5c3.5 2.3 8 3.6 6 8.5 6.2-2.6 7.8 3.8 4 8l3 .5c.2 1.7-2.1 3.6-2.5 5.4-.2 1.3.9 3.4.5 4-.2.3-5 1.7-5.7 3.3-.6 1.4 1.8 5-4.3 4.8l2 1c-1.3 3.4-6.2.1-5 5l-7-2 3 4c-5-1-9.9.8-14.7-1.6-1.5-.8-1.6-2.4-2.3-2.8-1-.5-2.6.2-4-1-1.2-1-.1-5.3-2.5-6.6l-.5 3-5-4.5c1.8-2.2 3.7 1.2 3-3l-4-2 4-7.5c-3.2-.6-1.6 5-4-.5l3.1-2.1-1.1-3.4 4-1.5-1.5-3.5c2-.6 4.2-4 5.6-4.5 2.2-1 4.5 2 5-2.5l3.9 2-1-3h6.4l1.6-2 1.4 2.8a14 14 0 0 1 11.6.2m4.5 242.5c1.4 1 3.2 1.5 3.3 1.7 1 1.2-1.6 4.1 3.8 4.8-1.7 5.3 4 7 4.4 10.6s-3 3-3 4 1.1 2.8 1 3.9c-.4 1.3-2.8 1.3-3 1.5-1.9 2.1 3.5 1.6 2 4h-3.5c-1.8 1.8.3 5.5-3 7-.9-3.5-5-2.4-3.6 1a88 88 0 0 1-12.4.8c-1.3 0-2.3-1.4-3-1.4s-1.5 1.3-2 1.3-3.2-2.6-4.5-3.3a50 50 0 0 1-9.8-6.6c-1.9-2.4-3.5-9-4.3-12.2l1.8-.8c-1.2-5.7 2.9-15.4 9.3-15.8l-2-2.5 4-1.5-.5 3 7-5c7.8.7 11.3.9 18 5.5M572 920.8v2l-2 .5 2 1.1v5.4h-3c-.3 2.7 0 2.5 2 3.5-1.6.6-4 6-4.3 6.2-.5.5-1.9.1-2.4.6s-.4 3.4-3.8 4.7l-2.5-2-.6 2-5-.9c-1.8 4.5-5.6 2-9.4 1.9l1-3-3.5 2-6.2-6.2c1-4.8-2.6-5-3.1-6.4-.2-.5 0-9.2.1-9.7.4-1.3 1.9-2 2.2-2.8.4-1.1-.2-2.3.4-3.4a27 27 0 0 1 11.9-9.3c2-.3 12.4 1 14.6 1.9 1.8.7 5.7 3.8 6.7 5.4 1.3 2.1-.3 6 4.9 6.5m324.8-96.7c.4.4 0 2 .4 2.4.6.7 2.4.4 3.3 1.3 1.6 1.6.8 5.8 4.3 6.2-1.3 2.7 0 5-.2 7.9-.4 3.8-3 4-2.8 7.7-1.8.4-8.8 8.2-9.4 8.2-.7 0-1.8-.8-2.8-.6-5.6.9-7 1.4-12.8-1.4-1-.4-1.1-1.8-2.5-2.7-.7-.5-2.4 0-3.1-.5-.3-.2-3.3-6.2-3.5-6.8-.8-2 0-5.2-.1-7.3 0-.7-1-1.5-1.2-2.2-.3-3.4 3.4-2.3 3.6-2.5.5-.4-2.6-3.2 1.3-5.6 1.3-.7 3.4-.2 4.3-1.4l-.6-3h5l.5-2.8c2.4-.4 15 1.7 16.3 3Z" style="fill:#414141"/></svg>